<svg id="Layer_1" data-name="Layer 1" xmlns="http://www.w3.org/2000/svg" xmlns:xlink="http://www.w3.org/1999/xlink" viewBox="0 0 595.28 254.82"><defs><style>.cls-1{fill:none;}.cls-2{clip-path:url(#clip-path);}.cls-3{fill:url(#linear-gradient);}.cls-4{clip-path:url(#clip-path-2);}.cls-5{fill:url(#linear-gradient-2);}.cls-6{clip-path:url(#clip-path-3);}.cls-7{fill:url(#linear-gradient-3);}.cls-8{clip-path:url(#clip-path-4);}.cls-9{fill:url(#linear-gradient-4);}.cls-10{clip-path:url(#clip-path-5);}.cls-11{fill:url(#linear-gradient-5);}.cls-12{clip-path:url(#clip-path-6);}.cls-13{fill:url(#linear-gradient-6);}.cls-14{font-size:58.05px;font-family:CenturyGothic-Bold, Century Gothic;font-weight:700;}.cls-14,.cls-15{fill:#121212;}.cls-15{font-size:27.01px;font-family:CenturyGothic, Century Gothic;}</style><clipPath id="clip-path"><polygon class="cls-1" points="74.53 108.72 56.55 119.25 56.95 119.46 56.09 119.96 56.09 203.11 17.45 182.6 18.22 141.22 18.24 99.81 39.9 88.21 55.32 97.34 74.53 108.72"/></clipPath><linearGradient id="linear-gradient" x1="-697.84" y1="627.56" x2="-697" y2="627.56" gradientTransform="matrix(0, 109.08, 109.08, 0, -68404.73, 76228.2)" gradientUnits="userSpaceOnUse"><stop offset="0" stop-color="#48c7ea"/><stop offset="0.17" stop-color="#4bc2e7"/><stop offset="0.37" stop-color="#53b4de"/><stop offset="0.59" stop-color="#629ccf"/><stop offset="0.81" stop-color="#757bba"/><stop offset="0.92" stop-color="#8069ae"/><stop offset="1" stop-color="#8069ae"/></linearGradient><clipPath id="clip-path-2"><polygon class="cls-1" points="166.9 97.22 166.86 98.47 166.11 139.92 165.38 179.97 130.46 200.13 130.47 118.97 59.55 77.3 94.46 57.15 166.9 97.22"/></clipPath><linearGradient id="linear-gradient-2" x1="-695.23" y1="626.87" x2="-694.39" y2="626.87" gradientTransform="matrix(0, 90.98, 90.98, 0, -56920.52, 63385.89)" gradientUnits="userSpaceOnUse"><stop offset="0" stop-color="#48c7ea"/><stop offset="0.28" stop-color="#5ea3d3"/><stop offset="0.58" stop-color="#7083bf"/><stop offset="0.83" stop-color="#7c70b2"/><stop offset="1" stop-color="#8069ae"/></linearGradient><clipPath id="clip-path-3"><rect class="cls-1" x="82.38" y="132.84" width="10.59" height="10.59"/></clipPath><linearGradient id="linear-gradient-3" x1="-690.94" y1="631.39" x2="-690.09" y2="631.39" gradientTransform="matrix(0, 48.48, 48.48, 0, -30520.84, 33621.34)" gradientUnits="userSpaceOnUse"><stop offset="0" stop-color="#48c7ea"/><stop offset="0.2" stop-color="#4bc3e7"/><stop offset="0.41" stop-color="#52b6df"/><stop offset="0.62" stop-color="#5fa0d1"/><stop offset="0.85" stop-color="#7183be"/><stop offset="1" stop-color="#8069ae"/></linearGradient><clipPath id="clip-path-4"><rect class="cls-1" x="96.03" y="132.84" width="10.59" height="10.59"/></clipPath><linearGradient id="linear-gradient-4" x1="-692.57" y1="629.69" x2="-691.72" y2="629.69" gradientTransform="matrix(0, 59.33, 59.33, 0, -37256.77, 41203.9)" gradientUnits="userSpaceOnUse"><stop offset="0" stop-color="#48c7ea"/><stop offset="0.17" stop-color="#4dbfe5"/><stop offset="0.44" stop-color="#5aaad7"/><stop offset="0.77" stop-color="#6e86c1"/><stop offset="1" stop-color="#8069ae"/></linearGradient><clipPath id="clip-path-5"><rect class="cls-1" x="82.38" y="147.04" width="10.59" height="10.59"/></clipPath><linearGradient id="linear-gradient-5" x1="-692.56" y1="629.69" x2="-691.71" y2="629.69" gradientTransform="matrix(0, 59.33, 59.33, 0, -37270.44, 41217.47)" gradientUnits="userSpaceOnUse"><stop offset="0" stop-color="#48c7ea"/><stop offset="0.17" stop-color="#4cc0e6"/><stop offset="0.42" stop-color="#57aeda"/><stop offset="0.7" stop-color="#6990c7"/><stop offset="1" stop-color="#8069ae"/></linearGradient><clipPath id="clip-path-6"><rect class="cls-1" x="96.03" y="147.04" width="10.59" height="10.59"/></clipPath><linearGradient id="linear-gradient-6" x1="-692.54" y1="629.68" x2="-691.69" y2="629.68" gradientTransform="matrix(0, 59.33, 59.33, 0, -37256.45, 41207.95)" gradientUnits="userSpaceOnUse"><stop offset="0" stop-color="#48c7ea"/><stop offset="1" stop-color="#8069ae"/></linearGradient></defs><g class="cls-2"><rect class="cls-3" x="-1.19" y="81.8" width="94.37" height="127.71" transform="translate(-49.02 26.06) rotate(-20.94)"/></g><g class="cls-4"><rect class="cls-5" x="25" y="39.89" width="176.44" height="177.51" transform="translate(-57.53 114.11) rotate(-43.78)"/></g><g class="cls-6"><rect class="cls-7" x="80.19" y="130.65" width="14.97" height="14.97" transform="translate(-71.41 99.94) rotate(-44.1)"/></g><g class="cls-8"><rect class="cls-9" x="93.84" y="130.65" width="14.97" height="14.97" transform="translate(-67.57 109.44) rotate(-44.1)"/></g><g class="cls-10"><rect class="cls-11" x="80.19" y="144.85" width="14.97" height="14.97" transform="translate(-81.29 103.94) rotate(-44.1)"/></g><g class="cls-12"><rect class="cls-13" x="93.84" y="144.85" width="14.97" height="14.97" transform="matrix(0.72, -0.7, 0.7, 0.72, -77.45, 113.44)"/></g><text class="cls-14" transform="translate(191.93 145.25)">KODES HOUSE</text><text class="cls-15" transform="translate(318.04 178.3)">A Better Revolution</text></svg>