<svg id="Layer_1" data-name="Layer 1" xmlns="http://www.w3.org/2000/svg" xmlns:xlink="http://www.w3.org/1999/xlink" viewBox="0 0 595.28 254.82"><defs><style>.cls-1{fill:url(#linear-gradient);}.cls-2{fill:url(#linear-gradient-2);}.cls-3{fill:url(#linear-gradient-3);}.cls-4{fill:url(#linear-gradient-4);}.cls-5{fill:url(#linear-gradient-5);}.cls-6{fill:url(#linear-gradient-6);}.cls-7{clip-path:url(#clip-path);}.cls-8{fill:url(#linear-gradient-8);}.cls-9{clip-path:url(#clip-path-2);}.cls-10{fill:url(#linear-gradient-10);}.cls-11{clip-path:url(#clip-path-3);}.cls-12{fill:url(#linear-gradient-12);}.cls-13{clip-path:url(#clip-path-4);}.cls-14{fill:url(#linear-gradient-14);}.cls-15{clip-path:url(#clip-path-5);}.cls-16{fill:url(#linear-gradient-16);}.cls-17{clip-path:url(#clip-path-6);}.cls-18{fill:url(#linear-gradient-18);}.cls-19{font-size:58.05px;font-family:CenturyGothic-Bold, Century Gothic;font-weight:700;}.cls-19,.cls-20{fill:#121212;}.cls-20{font-size:27.01px;font-family:CenturyGothic, Century Gothic;}</style><linearGradient id="linear-gradient" x1="29.44" y1="142.94" x2="70.62" y2="142.94" gradientUnits="userSpaceOnUse"><stop offset="0" stop-color="#575eaa"/><stop offset="1" stop-color="#a18893"/></linearGradient><linearGradient id="linear-gradient-2" x1="114.96" y1="125.92" x2="161.44" y2="125.92" xlink:href="#linear-gradient"/><linearGradient id="linear-gradient-3" x1="78.27" y1="135.42" x2="107.23" y2="135.42" xlink:href="#linear-gradient"/><linearGradient id="linear-gradient-4" x1="84.31" y1="135.42" x2="119.75" y2="135.42" xlink:href="#linear-gradient"/><linearGradient id="linear-gradient-5" x1="70.62" y1="149.62" x2="106.07" y2="149.62" xlink:href="#linear-gradient"/><linearGradient id="linear-gradient-6" x1="78.38" y1="149.62" x2="113.83" y2="149.62" xlink:href="#linear-gradient"/><clipPath id="clip-path"><polygon class="cls-1" points="73.58 106.01 55.6 116.53 55.99 116.75 55.14 117.25 55.14 200.39 16.5 179.88 17.26 138.5 17.29 97.1 38.95 85.49 54.37 94.63 73.58 106.01"/></clipPath><linearGradient id="linear-gradient-8" x1="-697.87" y1="627.56" x2="-697.03" y2="627.56" gradientTransform="matrix(0, 109.08, 109.08, 0, -68405.76, 76228.36)" xlink:href="#linear-gradient"/><clipPath id="clip-path-2"><polygon class="cls-2" points="165.94 94.5 165.91 95.76 165.16 137.2 164.43 177.26 129.5 197.42 129.51 116.26 58.6 74.58 93.51 54.43 165.94 94.5"/></clipPath><linearGradient id="linear-gradient-10" x1="-695.26" y1="626.89" x2="-694.41" y2="626.89" gradientTransform="matrix(0, 90.98, 90.98, 0, -56922.66, 63385.79)" xlink:href="#linear-gradient"/><clipPath id="clip-path-3"><rect class="cls-3" x="81.43" y="130.13" width="10.59" height="10.59"/></clipPath><linearGradient id="linear-gradient-12" x1="-690.99" y1="631.42" x2="-690.15" y2="631.42" gradientTransform="matrix(0, 48.48, 48.48, 0, -30523, 33621.24)" xlink:href="#linear-gradient"/><clipPath id="clip-path-4"><rect class="cls-4" x="95.08" y="130.13" width="10.59" height="10.59"/></clipPath><linearGradient id="linear-gradient-14" x1="-692.61" y1="629.71" x2="-691.77" y2="629.71" gradientTransform="matrix(0, 59.33, 59.33, 0, -37258.93, 41203.8)" xlink:href="#linear-gradient"/><clipPath id="clip-path-5"><rect class="cls-5" x="81.43" y="144.32" width="10.59" height="10.59"/></clipPath><linearGradient id="linear-gradient-16" x1="-692.6" y1="629.71" x2="-691.76" y2="629.71" gradientTransform="matrix(0, 59.33, 59.33, 0, -37272.59, 41217.37)" xlink:href="#linear-gradient"/><clipPath id="clip-path-6"><rect class="cls-6" x="95.08" y="144.32" width="10.59" height="10.59"/></clipPath><linearGradient id="linear-gradient-18" x1="-692.58" y1="629.71" x2="-691.74" y2="629.71" gradientTransform="matrix(0, 59.33, 59.33, 0, -37258.61, 41207.85)" xlink:href="#linear-gradient"/></defs><polygon class="cls-1" points="73.58 106.01 55.6 116.53 55.99 116.75 55.14 117.25 55.14 200.39 16.5 179.88 17.26 138.5 17.29 97.1 38.95 85.49 54.37 94.63 73.58 106.01"/><g class="cls-7"><rect class="cls-8" x="-2.15" y="79.09" width="94.37" height="127.71" transform="translate(-48.11 25.54) rotate(-20.94)"/></g><polygon class="cls-2" points="165.94 94.5 165.91 95.76 165.16 137.2 164.43 177.26 129.5 197.42 129.51 116.26 58.6 74.58 93.51 54.43 165.94 94.5"/><g class="cls-9"><rect class="cls-10" x="24.05" y="37.17" width="176.44" height="177.51" transform="translate(-55.92 112.7) rotate(-43.78)"/></g><rect class="cls-3" x="81.43" y="130.13" width="10.59" height="10.59"/><g class="cls-11"><rect class="cls-12" x="79.24" y="127.93" width="14.97" height="14.97" transform="translate(-69.79 98.51) rotate(-44.1)"/></g><rect class="cls-4" x="95.08" y="130.13" width="10.59" height="10.59"/><g class="cls-13"><rect class="cls-14" x="92.89" y="127.93" width="14.97" height="14.97" transform="translate(-65.95 108.01) rotate(-44.1)"/></g><rect class="cls-5" x="81.43" y="144.32" width="10.59" height="10.59"/><g class="cls-15"><rect class="cls-16" x="79.24" y="142.13" width="14.97" height="14.97" transform="translate(-79.67 102.51) rotate(-44.1)"/></g><rect class="cls-6" x="95.08" y="144.32" width="10.59" height="10.59"/><g class="cls-17"><rect class="cls-18" x="92.89" y="142.13" width="14.97" height="14.97" transform="translate(-75.83 112.01) rotate(-44.1)"/></g><text class="cls-19" transform="translate(190.97 142.53)">KODES HOUSE</text><text class="cls-20" transform="translate(317.09 175.59)">A Better Revolution</text></svg>