<svg width="110" height="110" viewBox="0 0 110 110" fill="none" xmlns="http://www.w3.org/2000/svg">
<rect width="110" height="110" rx="24" fill="#5332FB" fill-opacity="0.1"/>
<path d="M22.1872 40.8044C21.2492 40.8078 20.3271 41.0102 19.5048 41.393C18.6825 41.7757 17.9861 42.3268 17.4789 42.9961C16.9718 43.6654 16.6699 44.4316 16.6009 45.225C16.5319 46.0185 16.6979 46.8139 17.0837 47.5391L29.4206 71.0072C29.7061 71.5559 30.1572 72.0311 30.7285 72.3846C31.2997 72.7382 31.9709 72.9576 32.6741 73.0207C33.3773 73.0839 34.0878 72.9885 34.7337 72.7443C35.3795 72.5 35.938 72.1155 36.3526 71.6297L37.7367 70.0578L51.2279 54.6756C52.0391 53.7513 53.0928 52.9999 54.3056 52.4807C55.5185 51.9616 56.8571 51.689 58.2157 51.6847L62.8578 51.72L60.1164 46.3877C59.2242 44.7032 57.7749 43.2746 55.9444 42.2748C54.1139 41.2751 51.9807 40.7473 49.8035 40.7553L22.1872 40.8044Z" fill="#31BCFF"/>
<path d="M29.4292 71.0041L29.9789 72.0501L29.4292 71.0041Z" fill="#F4A3EA"/>
<path d="M51.4518 54.4323L37.7374 70.0574L36.3533 71.6292C35.9386 72.1151 35.3802 72.4996 34.7343 72.7438C34.0884 72.9881 33.378 73.0834 32.6748 73.0203C31.9715 72.9571 31.3004 72.7377 30.7291 72.3842C30.1579 72.0306 29.7067 71.5555 29.4213 71.0067L29.9816 72.0562C30.6541 73.3265 31.7465 74.4041 33.1265 75.1584C34.5065 75.9127 36.1148 76.3114 37.7565 76.3061L68.2291 76.2526L71.6647 76.2425C72.9545 76.2367 74.2251 75.9772 75.3765 75.4842C76.528 74.9913 77.5288 74.2784 78.3003 73.4017L79.9223 71.5813C79.505 72.0587 78.9478 72.4352 78.306 72.6735C77.6641 72.9119 76.96 73.0037 76.2634 72.94C75.5668 72.8763 74.902 72.6592 74.3348 72.3103C73.7677 71.9614 73.3179 71.4928 73.0302 70.951V70.951L69.9167 65.1201L62.8491 51.768L57.8418 51.6934C56.5996 51.7 55.3761 51.9508 54.2674 52.426C53.1587 52.9012 52.1949 53.588 51.4518 54.4323Z" fill="#5332FB"/>
<path d="M76.652 66.1022C76.124 66.1038 75.6015 66.1937 75.1145 66.3667C74.6274 66.5397 74.1854 66.7924 73.8135 67.1104C73.4417 67.4283 73.1474 67.8053 72.9474 68.2198C72.7475 68.6343 72.6458 69.0782 72.6481 69.526C72.655 69.9955 72.7734 70.4591 72.9965 70.8889C73.2844 71.4295 73.7338 71.8971 74.3001 72.2453C74.8665 72.5935 75.5301 72.8103 76.2255 72.8742C76.9209 72.9382 77.6239 72.847 78.2651 72.6099C78.9063 72.3727 79.4633 71.9978 79.8812 71.522L84.0682 66.7557L89.7112 60.3375C90.4247 59.5251 90.8573 58.5602 90.9604 57.551C91.0636 56.5418 90.8334 55.5281 90.2955 54.6237C89.7576 53.7192 88.9333 52.9597 87.915 52.4303C86.8968 51.9009 85.7248 51.6225 84.5304 51.6263L62.8432 51.7251L69.9109 65.0771L73.0211 70.9019C72.7536 70.3867 72.6408 69.8233 72.6926 69.2621C72.7445 68.7009 72.9594 68.1593 73.3182 67.6857C73.6771 67.2121 74.1686 66.8213 74.7489 66.5481C75.3293 66.2749 75.9803 66.1279 76.644 66.1202L76.652 66.1022ZM84.067 65.035L77.0129 65.0431L84.067 65.035Z" fill="#09D2CE"/>
</svg>
